<svg width="697" height="276" viewBox="0 0 697 276" fill="none" xmlns="http://www.w3.org/2000/svg">
<g clip-path="url(#clip0_0_1)">
<path d="M244.588 81.1819C244.586 76.5536 243.597 72.4639 241.598 68.9538C239.634 65.5023 236.693 62.6093 232.748 60.322C200.185 41.5224 167.591 22.7802 135.038 3.96138C126.262 -1.11153 117.753 -0.926593 109.042 4.21914C96.0811 11.8726 31.1896 49.0972 11.8528 60.3115C3.88937 64.9273 0.0143555 71.9914 0.0124414 81.1733C0 118.981 0.0124414 156.787 0 194.595C0.00191406 199.122 0.948418 203.132 2.85961 206.589C4.82439 210.145 7.8065 213.118 11.8423 215.457C31.1801 226.671 96.0802 263.893 109.038 271.548C117.753 276.697 126.262 276.881 135.041 271.806C167.594 252.986 200.191 234.245 232.759 215.445C236.794 213.107 239.777 210.133 241.741 206.58C243.65 203.122 244.598 199.112 244.6 194.585C244.6 194.585 244.6 118.99 244.588 81.1819Z" fill="#5C8DBC"/>
<path d="M122.674 137.516L2.8596 206.589C4.82439 210.145 7.8065 213.118 11.8423 215.457C31.1801 226.671 96.0802 263.893 109.038 271.548C117.753 276.697 126.262 276.881 135.041 271.806C167.594 252.986 200.191 234.245 232.759 215.445C236.794 213.107 239.777 210.133 241.741 206.58L122.674 137.516Z" fill="#1A4674"/>
<path d="M87.1865 157.976C94.1585 170.163 107.265 178.383 122.3 178.383C137.428 178.383 150.609 170.058 157.546 157.741L122.674 137.516L87.1865 157.976Z" fill="#1A4674"/>
<path d="M244.588 81.1819C244.586 76.5536 243.597 72.4639 241.598 68.9539L122.674 137.516L241.741 206.58C243.65 203.122 244.598 199.112 244.6 194.585C244.6 194.585 244.6 118.99 244.588 81.1819Z" fill="#1B598E"/>
<path d="M238.04 142.453H228.736V151.77H219.43V142.453H210.127V133.138H219.43V123.822H228.736V133.138H238.04V142.453ZM204.09 142.453H194.786V151.77H185.482V142.453H176.178V133.138H185.482V123.822H194.786V133.138H204.09V142.453Z" fill="white"/>
<path d="M157.546 157.741C150.609 170.058 137.428 178.383 122.3 178.383C107.265 178.383 94.1585 170.163 87.1865 157.976C83.6841 151.861 81.8448 144.933 81.852 137.884C81.852 115.517 99.9619 97.3857 122.3 97.3857C137.238 97.3857 150.276 105.503 157.282 117.565L192.636 97.1816C178.584 72.8941 152.349 56.5542 122.3 56.5542C77.4382 56.5542 41.072 92.9672 41.072 137.884C41.072 152.619 44.9872 166.438 51.8299 178.358C65.8466 202.774 92.1564 219.214 122.3 219.214C152.499 219.214 178.85 202.707 192.847 178.22L157.546 157.741Z" fill="white"/>
</g>
<path d="M314.936 122C314.467 122 314.083 121.851 313.784 121.552C313.485 121.253 313.336 120.869 313.336 120.4V87.248H301.944C301.475 87.248 301.091 87.0987 300.792 86.8C300.493 86.4587 300.344 86.0747 300.344 85.648V78.8C300.344 78.3307 300.493 77.9467 300.792 77.648C301.091 77.3493 301.475 77.2 301.944 77.2H336.376C336.845 77.2 337.229 77.3493 337.528 77.648C337.827 77.9467 337.976 78.3307 337.976 78.8V85.648C337.976 86.0747 337.827 86.4587 337.528 86.8C337.229 87.0987 336.845 87.248 336.376 87.248H324.984V120.4C324.984 120.869 324.835 121.253 324.536 121.552C324.237 121.851 323.853 122 323.384 122H314.936ZM345.393 122C344.923 122 344.539 121.851 344.241 121.552C343.942 121.253 343.793 120.869 343.793 120.4V78.8C343.793 78.3307 343.942 77.9467 344.241 77.648C344.539 77.3493 344.923 77.2 345.393 77.2H353.649C354.118 77.2 354.502 77.3493 354.801 77.648C355.099 77.9467 355.249 78.3307 355.249 78.8V94.224H371.057V78.8C371.057 78.3307 371.206 77.9467 371.505 77.648C371.803 77.3493 372.187 77.2 372.657 77.2H380.913C381.382 77.2 381.766 77.3493 382.065 77.648C382.363 77.9467 382.513 78.3307 382.513 78.8V120.4C382.513 120.869 382.363 121.253 382.065 121.552C381.766 121.851 381.382 122 380.913 122H372.657C372.187 122 371.803 121.851 371.505 121.552C371.206 121.253 371.057 120.869 371.057 120.4V104.464H355.249V120.4C355.249 120.869 355.099 121.253 354.801 121.552C354.502 121.851 354.118 122 353.649 122H345.393ZM393.08 122C392.611 122 392.227 121.851 391.928 121.552C391.629 121.253 391.48 120.869 391.48 120.4V78.8C391.48 78.3307 391.629 77.9467 391.928 77.648C392.227 77.3493 392.611 77.2 393.08 77.2H422.968C423.437 77.2 423.821 77.3493 424.12 77.648C424.419 77.9467 424.568 78.3307 424.568 78.8V84.816C424.568 85.2853 424.419 85.6693 424.12 85.968C423.821 86.2667 423.437 86.416 422.968 86.416H402.552V95.056H421.56C422.029 95.056 422.413 95.2267 422.712 95.568C423.011 95.8667 423.16 96.2507 423.16 96.72V102.288C423.16 102.715 423.011 103.099 422.712 103.44C422.413 103.739 422.029 103.888 421.56 103.888H402.552V112.784H423.48C423.949 112.784 424.333 112.933 424.632 113.232C424.931 113.531 425.08 113.915 425.08 114.384V120.4C425.08 120.869 424.931 121.253 424.632 121.552C424.333 121.851 423.949 122 423.48 122H393.08ZM447.58 122C447.111 122 446.727 121.851 446.428 121.552C446.129 121.253 445.98 120.869 445.98 120.4V78.8C445.98 78.3307 446.129 77.9467 446.428 77.648C446.727 77.3493 447.111 77.2 447.58 77.2H476.956C477.425 77.2 477.809 77.3493 478.108 77.648C478.449 77.9467 478.62 78.3307 478.62 78.8V85.264C478.62 85.7333 478.449 86.1173 478.108 86.416C477.809 86.7147 477.425 86.864 476.956 86.864H457.244V96.272H475.676C476.145 96.272 476.529 96.4427 476.828 96.784C477.169 97.0827 477.34 97.4667 477.34 97.936V104.336C477.34 104.763 477.169 105.147 476.828 105.488C476.529 105.787 476.145 105.936 475.676 105.936H457.244V120.4C457.244 120.869 457.095 121.253 456.796 121.552C456.497 121.851 456.113 122 455.644 122H447.58ZM504.232 122.64C500.392 122.64 497.021 122.021 494.12 120.784C491.261 119.504 489.043 117.563 487.464 114.96C485.885 112.315 485.096 108.965 485.096 104.912V78.8C485.096 78.3307 485.245 77.9467 485.544 77.648C485.843 77.3493 486.227 77.2 486.696 77.2H494.952C495.421 77.2 495.805 77.3493 496.104 77.648C496.403 77.9467 496.552 78.3307 496.552 78.8V104.848C496.552 107.621 497.213 109.712 498.536 111.12C499.901 112.485 501.8 113.168 504.232 113.168C506.621 113.168 508.477 112.485 509.8 111.12C511.165 109.712 511.848 107.621 511.848 104.848V78.8C511.848 78.3307 511.997 77.9467 512.296 77.648C512.637 77.3493 513.021 77.2 513.448 77.2H521.768C522.195 77.2 522.557 77.3493 522.856 77.648C523.197 77.9467 523.368 78.3307 523.368 78.8V104.912C523.368 108.965 522.579 112.315 521 114.96C519.421 117.563 517.203 119.504 514.344 120.784C511.485 122.021 508.115 122.64 504.232 122.64ZM533.455 122C532.986 122 532.602 121.851 532.303 121.552C532.004 121.253 531.855 120.869 531.855 120.4V78.8C531.855 78.3307 532.004 77.9467 532.303 77.648C532.602 77.3493 532.986 77.2 533.455 77.2H541.903C542.33 77.2 542.692 77.3493 542.991 77.648C543.332 77.9467 543.503 78.3307 543.503 78.8V112.336H562.831C563.3 112.336 563.684 112.507 563.983 112.848C564.324 113.147 564.495 113.531 564.495 114V120.4C564.495 120.869 564.324 121.253 563.983 121.552C563.684 121.851 563.3 122 562.831 122H533.455ZM571.643 122C571.173 122 570.789 121.851 570.491 121.552C570.192 121.253 570.043 120.869 570.043 120.4V78.8C570.043 78.3307 570.192 77.9467 570.491 77.648C570.789 77.3493 571.173 77.2 571.643 77.2H580.091C580.517 77.2 580.88 77.3493 581.179 77.648C581.52 77.9467 581.691 78.3307 581.691 78.8V112.336H601.019C601.488 112.336 601.872 112.507 602.171 112.848C602.512 113.147 602.683 113.531 602.683 114V120.4C602.683 120.869 602.512 121.253 602.171 121.552C601.872 121.851 601.488 122 601.019 122H571.643ZM321.848 198.64C317.795 198.64 314.317 197.979 311.416 196.656C308.557 195.333 306.317 193.392 304.696 190.832C303.117 188.272 302.243 185.093 302.072 181.296C302.029 179.547 302.008 177.669 302.008 175.664C302.008 173.659 302.029 171.739 302.072 169.904C302.243 166.192 303.139 163.056 304.76 160.496C306.381 157.893 308.643 155.931 311.544 154.608C314.445 153.243 317.88 152.56 321.848 152.56C324.664 152.56 327.267 152.923 329.656 153.648C332.045 154.331 334.136 155.355 335.928 156.72C337.72 158.043 339.107 159.664 340.088 161.584C341.112 163.461 341.645 165.595 341.688 167.984C341.731 168.368 341.603 168.688 341.304 168.944C341.048 169.2 340.728 169.328 340.344 169.328H331.704C331.149 169.328 330.723 169.221 330.424 169.008C330.125 168.752 329.869 168.304 329.656 167.664C329.059 165.403 328.077 163.867 326.712 163.056C325.389 162.203 323.747 161.776 321.784 161.776C319.437 161.776 317.581 162.437 316.216 163.76C314.851 165.04 314.104 167.195 313.976 170.224C313.848 173.723 313.848 177.307 313.976 180.976C314.104 184.005 314.851 186.181 316.216 187.504C317.581 188.784 319.437 189.424 321.784 189.424C323.747 189.424 325.411 188.997 326.776 188.144C328.141 187.291 329.101 185.755 329.656 183.536C329.827 182.896 330.061 182.469 330.36 182.256C330.701 182 331.149 181.872 331.704 181.872H340.344C340.728 181.872 341.048 182 341.304 182.256C341.603 182.512 341.731 182.832 341.688 183.216C341.645 185.605 341.112 187.76 340.088 189.68C339.107 191.557 337.72 193.179 335.928 194.544C334.136 195.867 332.045 196.891 329.656 197.616C327.267 198.299 324.664 198.64 321.848 198.64ZM360.77 195.888C360.3 195.888 359.916 195.739 359.618 195.44C359.319 195.141 359.17 194.757 359.17 194.288V182.576H347.778C347.308 182.576 346.903 182.427 346.562 182.128C346.263 181.829 346.114 181.445 346.114 180.976V176.304C346.114 175.835 346.263 175.451 346.562 175.152C346.903 174.853 347.308 174.704 347.778 174.704H359.17V163.312C359.17 162.843 359.319 162.459 359.618 162.16C359.916 161.861 360.3 161.712 360.77 161.712H366.018C366.444 161.712 366.807 161.861 367.106 162.16C367.447 162.459 367.618 162.843 367.618 163.312V174.704H378.946C379.415 174.704 379.799 174.853 380.097 175.152C380.396 175.451 380.546 175.835 380.546 176.304V180.976C380.546 181.445 380.396 181.829 380.097 182.128C379.799 182.427 379.415 182.576 378.946 182.576H367.618V194.288C367.618 194.757 367.447 195.141 367.106 195.44C366.807 195.739 366.444 195.888 366.018 195.888H360.77ZM399.645 195.888C399.175 195.888 398.791 195.739 398.493 195.44C398.194 195.141 398.045 194.757 398.045 194.288V182.576H386.653C386.183 182.576 385.778 182.427 385.437 182.128C385.138 181.829 384.989 181.445 384.989 180.976V176.304C384.989 175.835 385.138 175.451 385.437 175.152C385.778 174.853 386.183 174.704 386.653 174.704H398.045V163.312C398.045 162.843 398.194 162.459 398.493 162.16C398.791 161.861 399.175 161.712 399.645 161.712H404.893C405.319 161.712 405.682 161.861 405.981 162.16C406.322 162.459 406.493 162.843 406.493 163.312V174.704H417.821C418.29 174.704 418.674 174.853 418.972 175.152C419.271 175.451 419.421 175.835 419.421 176.304V180.976C419.421 181.445 419.271 181.829 418.972 182.128C418.674 182.427 418.29 182.576 417.821 182.576H406.493V194.288C406.493 194.757 406.322 195.141 405.981 195.44C405.682 195.739 405.319 195.888 404.893 195.888H399.645ZM458.161 198.64C454.107 198.64 450.63 197.979 447.729 196.656C444.87 195.333 442.63 193.392 441.009 190.832C439.43 188.272 438.555 185.093 438.385 181.296C438.342 179.547 438.321 177.669 438.321 175.664C438.321 173.659 438.342 171.739 438.385 169.904C438.555 166.192 439.451 163.056 441.073 160.496C442.694 157.893 444.955 155.931 447.857 154.608C450.758 153.243 454.193 152.56 458.161 152.56C460.977 152.56 463.579 152.923 465.969 153.648C468.358 154.331 470.449 155.355 472.241 156.72C474.033 158.043 475.419 159.664 476.401 161.584C477.425 163.461 477.958 165.595 478.001 167.984C478.043 168.368 477.915 168.688 477.617 168.944C477.361 169.2 477.041 169.328 476.657 169.328H468.017C467.462 169.328 467.035 169.221 466.737 169.008C466.438 168.752 466.182 168.304 465.969 167.664C465.371 165.403 464.39 163.867 463.025 163.056C461.702 162.203 460.059 161.776 458.097 161.776C455.75 161.776 453.894 162.437 452.529 163.76C451.163 165.04 450.417 167.195 450.289 170.224C450.161 173.723 450.161 177.307 450.289 180.976C450.417 184.005 451.163 186.181 452.529 187.504C453.894 188.784 455.75 189.424 458.097 189.424C460.059 189.424 461.723 188.997 463.089 188.144C464.454 187.291 465.414 185.755 465.969 183.536C466.139 182.896 466.374 182.469 466.673 182.256C467.014 182 467.462 181.872 468.017 181.872H476.657C477.041 181.872 477.361 182 477.617 182.256C477.915 182.512 478.043 182.832 478.001 183.216C477.958 185.605 477.425 187.76 476.401 189.68C475.419 191.557 474.033 193.179 472.241 194.544C470.449 195.867 468.358 196.891 465.969 197.616C463.579 198.299 460.977 198.64 458.161 198.64ZM503.034 198.64C499.109 198.64 495.695 198 492.794 196.72C489.893 195.44 487.631 193.52 486.01 190.96C484.389 188.357 483.493 185.115 483.322 181.232C483.279 179.397 483.258 177.563 483.258 175.728C483.258 173.893 483.279 172.037 483.322 170.16C483.493 166.32 484.389 163.099 486.01 160.496C487.674 157.851 489.957 155.867 492.858 154.544C495.759 153.221 499.151 152.56 503.034 152.56C506.874 152.56 510.245 153.221 513.146 154.544C516.09 155.867 518.394 157.851 520.058 160.496C521.722 163.099 522.618 166.32 522.746 170.16C522.831 172.037 522.874 173.893 522.874 175.728C522.874 177.563 522.831 179.397 522.746 181.232C522.575 185.115 521.679 188.357 520.058 190.96C518.437 193.52 516.175 195.44 513.274 196.72C510.373 198 506.959 198.64 503.034 198.64ZM503.034 189.424C505.295 189.424 507.13 188.741 508.538 187.376C509.989 186.011 510.757 183.835 510.842 180.848C510.927 178.971 510.97 177.2 510.97 175.536C510.97 173.872 510.927 172.144 510.842 170.352C510.757 168.347 510.373 166.725 509.69 165.488C509.05 164.208 508.154 163.269 507.002 162.672C505.85 162.075 504.527 161.776 503.034 161.776C501.583 161.776 500.282 162.075 499.13 162.672C497.978 163.269 497.061 164.208 496.378 165.488C495.695 166.725 495.311 168.347 495.226 170.352C495.183 172.144 495.162 173.872 495.162 175.536C495.162 177.2 495.183 178.971 495.226 180.848C495.354 183.835 496.122 186.011 497.53 187.376C498.938 188.741 500.773 189.424 503.034 189.424ZM549.045 198.64C545.205 198.64 541.834 198.021 538.933 196.784C536.074 195.504 533.855 193.563 532.277 190.96C530.698 188.315 529.909 184.965 529.909 180.912V154.8C529.909 154.331 530.058 153.947 530.357 153.648C530.655 153.349 531.039 153.2 531.509 153.2H539.765C540.234 153.2 540.618 153.349 540.917 153.648C541.215 153.947 541.365 154.331 541.365 154.8V180.848C541.365 183.621 542.026 185.712 543.349 187.12C544.714 188.485 546.613 189.168 549.045 189.168C551.434 189.168 553.29 188.485 554.613 187.12C555.978 185.712 556.661 183.621 556.661 180.848V154.8C556.661 154.331 556.81 153.947 557.109 153.648C557.45 153.349 557.834 153.2 558.261 153.2H566.581C567.007 153.2 567.37 153.349 567.669 153.648C568.01 153.947 568.181 154.331 568.181 154.8V180.912C568.181 184.965 567.391 188.315 565.812 190.96C564.234 193.563 562.015 195.504 559.157 196.784C556.298 198.021 552.927 198.64 549.045 198.64ZM578.268 198C577.798 198 577.414 197.851 577.116 197.552C576.817 197.253 576.668 196.869 576.668 196.4V154.8C576.668 154.331 576.817 153.947 577.116 153.648C577.414 153.349 577.798 153.2 578.268 153.2H595.676C601.18 153.2 605.51 154.48 608.668 157.04C611.868 159.557 613.468 163.141 613.468 167.792C613.468 170.821 612.721 173.381 611.228 175.472C609.777 177.563 607.857 179.141 605.468 180.208L614.3 195.952C614.428 196.208 614.492 196.443 614.492 196.656C614.492 196.997 614.342 197.317 614.044 197.616C613.788 197.872 613.468 198 613.084 198H604.636C603.825 198 603.228 197.808 602.844 197.424C602.46 196.997 602.182 196.613 602.012 196.272L594.716 182.192H588.124V196.4C588.124 196.869 587.974 197.253 587.676 197.552C587.377 197.851 586.993 198 586.524 198H578.268ZM588.124 173.168H595.548C597.553 173.168 599.046 172.677 600.028 171.696C601.052 170.715 601.564 169.371 601.564 167.664C601.564 166 601.073 164.656 600.092 163.632C599.153 162.608 597.638 162.096 595.548 162.096H588.124V173.168ZM637.622 198.64C633.355 198.64 629.814 198.043 626.998 196.848C624.182 195.611 622.048 194.011 620.598 192.048C619.147 190.085 618.379 187.995 618.294 185.776C618.294 185.435 618.422 185.136 618.678 184.88C618.976 184.581 619.318 184.432 619.702 184.432H627.766C628.363 184.432 628.811 184.539 629.11 184.752C629.451 184.965 629.75 185.243 630.006 185.584C630.347 186.224 630.816 186.843 631.414 187.44C632.054 188.037 632.864 188.528 633.846 188.912C634.87 189.253 636.128 189.424 637.622 189.424C640.096 189.424 641.952 189.04 643.19 188.272C644.47 187.504 645.11 186.459 645.11 185.136C645.11 184.197 644.768 183.429 644.086 182.832C643.403 182.192 642.294 181.637 640.758 181.168C639.264 180.656 637.259 180.144 634.742 179.632C631.499 178.949 628.726 178.075 626.422 177.008C624.16 175.899 622.432 174.469 621.238 172.72C620.043 170.928 619.446 168.709 619.446 166.064C619.446 163.461 620.171 161.136 621.622 159.088C623.115 157.04 625.184 155.44 627.83 154.288C630.475 153.136 633.611 152.56 637.238 152.56C640.182 152.56 642.763 152.944 644.982 153.712C647.243 154.48 649.142 155.504 650.678 156.784C652.214 158.064 653.366 159.429 654.134 160.88C654.944 162.288 655.371 163.675 655.414 165.04C655.414 165.381 655.286 165.701 655.03 166C654.774 166.256 654.454 166.384 654.069 166.384H645.622C645.152 166.384 644.747 166.299 644.406 166.128C644.064 165.957 643.766 165.68 643.51 165.296C643.254 164.357 642.571 163.547 641.462 162.864C640.395 162.139 638.987 161.776 637.238 161.776C635.36 161.776 633.888 162.117 632.822 162.8C631.798 163.44 631.286 164.443 631.286 165.808C631.286 166.661 631.563 167.408 632.118 168.048C632.715 168.688 633.675 169.243 634.998 169.712C636.363 170.181 638.219 170.672 640.566 171.184C644.448 171.909 647.584 172.827 649.974 173.936C652.363 175.003 654.112 176.411 655.222 178.16C656.331 179.867 656.886 182.021 656.886 184.624C656.886 187.525 656.054 190.043 654.39 192.176C652.768 194.267 650.507 195.867 647.606 196.976C644.704 198.085 641.376 198.64 637.622 198.64ZM664.893 198C664.423 198 664.039 197.851 663.741 197.552C663.442 197.253 663.293 196.869 663.293 196.4V154.8C663.293 154.331 663.442 153.947 663.741 153.648C664.039 153.349 664.423 153.2 664.893 153.2H694.781C695.25 153.2 695.634 153.349 695.933 153.648C696.231 153.947 696.381 154.331 696.381 154.8V160.816C696.381 161.285 696.231 161.669 695.933 161.968C695.634 162.267 695.25 162.416 694.781 162.416H674.365V171.056H693.373C693.842 171.056 694.226 171.227 694.525 171.568C694.823 171.867 694.972 172.251 694.972 172.72V178.288C694.972 178.715 694.823 179.099 694.525 179.44C694.226 179.739 693.842 179.888 693.373 179.888H674.365V188.784H695.293C695.762 188.784 696.146 188.933 696.444 189.232C696.743 189.531 696.893 189.915 696.893 190.384V196.4C696.893 196.869 696.743 197.253 696.444 197.552C696.146 197.851 695.762 198 695.293 198H664.893Z" fill="white"/>
<defs>
<clipPath id="clip0_0_1">
<rect width="245" height="276" fill="white"/>
</clipPath>
</defs>
</svg>
