<?xml version="1.0" encoding="UTF-8"?>
<svg id="Layer_1" data-name="Layer 1" xmlns="http://www.w3.org/2000/svg" viewBox="0 0 158.19 204.03">
  <defs>
    <style>
      .cls-1 {
        stroke-miterlimit: 10;
      }

      .cls-1, .cls-2 {
        fill: none;
        stroke: #e1e6ef;
        stroke-width: 8px;
      }

      .cls-3 {
        font-size: 88.95px;
        letter-spacing: -.02em;
      }

      .cls-3, .cls-4 {
        font-family: Rubik-Bold, Rubik;
        font-variation-settings: 'wght' 700;
      }

      .cls-3, .cls-4, .cls-5 {
        fill: #69addf;
        font-weight: 700;
      }

      .cls-2 {
        stroke-linecap: round;
        stroke-linejoin: round;
      }

      .cls-4 {
        font-size: 87.76px;
      }

      .cls-5 {
        font-family: Rubik-ExtraBold, Rubik;
        font-size: 53.37px;
        font-variation-settings: 'wght' 800;
      }
    </style>
  </defs>
  <text class="cls-4" transform="translate(11.68 127.43) rotate(31.59) scale(1.15 .85) skewX(24.46)"><tspan x="0" y="0">P</tspan></text>
  <text class="cls-3" transform="translate(86.22 161.81) rotate(-30.02) scale(1.25 .86) skewX(-22.13)"><tspan x="0" y="0">L</tspan></text>
  <text class="cls-5" transform="translate(27.5 64.08) scale(1.16 1)"><tspan x="0" y="0">&lt;/&gt;</tspan></text>
  <path class="cls-1" d="M5.34,47.38c-1.03,1.96-1.18,4.24-1.26,6.7-.18,16.8,0,52.9-.05,69.48.1,3.48-.16,7.11,1.67,9.94,1.27,1.92,4.22,3.75,6.62,5.2,12.34,7.4,42.71,25.46,56.6,33.74,2.75,1.6,5.63,3.47,8.5,4.21,3.67.67,5.69-.85,9.49-2.85,16.09-9.37,45.4-26.37,60.62-35.4,7.3-3.95,6.58-8.42,6.63-16.53,0-4.92,0-11.4,0-18.47-.09-16.65.19-33.98-.12-50.52.05-6.5-3.85-8.59-9.54-11.94-5.05-2.97-10.09-5.94-15.37-9.05-7.84-4.61-16.56-9.74-24.35-14.32-5.67-3.33-10.86-6.39-14.87-8.74-5.21-2.72-8.38-6.05-13.71-4.44C58.24,13.62,34.56,28.93,14.32,40.47c-4.84,2.9-7.64,4.55-8.93,6.84l-.04.08Z"/>
  <polyline class="cls-2" points="11.03 50.82 78.65 90.47 78.65 170.44 78.65 90.47 147.16 50.91"/>
</svg>